<svg width="20" height="19" viewBox="0 0 20 19" fill="none" xmlns="http://www.w3.org/2000/svg">
<path d="M6.70318 17.486C6.70318 17.7035 6.63866 17.9162 6.51779 18.0971C6.39692 18.278 6.22513 18.419 6.02413 18.5023C5.82313 18.5855 5.60195 18.6073 5.38858 18.5648C5.1752 18.5224 4.97919 18.4176 4.82536 18.2638C4.67152 18.11 4.56675 17.914 4.52431 17.7006C4.48187 17.4872 4.50365 17.266 4.58691 17.065C4.67016 16.864 4.81115 16.6922 4.99205 16.5714C5.17294 16.4505 5.38562 16.386 5.60317 16.386C5.89491 16.386 6.1747 16.5019 6.38099 16.7082C6.58728 16.9145 6.70318 17.1942 6.70318 17.486Z" fill="white"/>
<path d="M16.9802 17.486C16.9802 17.7035 16.9156 17.9162 16.7948 18.0971C16.6739 18.278 16.5021 18.419 16.3011 18.5023C16.1001 18.5855 15.8789 18.6073 15.6656 18.5648C15.4522 18.5224 15.2562 18.4176 15.1023 18.2638C14.9485 18.11 14.8437 17.914 14.8013 17.7006C14.7588 17.4872 14.7806 17.266 14.8639 17.065C14.9471 16.864 15.0881 16.6922 15.269 16.5714C15.4499 16.4505 15.6626 16.386 15.8802 16.386C16.1719 16.386 16.4517 16.5019 16.658 16.7082C16.8643 16.9145 16.9802 17.1942 16.9802 17.486Z" fill="white"/>
<path d="M19.5122 4.1271C19.4967 4.07472 19.4657 4.02829 19.4231 3.994C19.3806 3.9597 19.3287 3.93916 19.2742 3.9351L4.3632 2.4921C4.2934 2.48487 4.22618 2.46173 4.16672 2.42446C4.10726 2.38719 4.05713 2.33678 4.0202 2.2771C3.86556 1.97353 3.67811 1.68783 3.4612 1.4251C3.1082 0.995104 2.4452 1.0081 1.2272 0.999104C1.13495 0.988072 1.04142 0.996433 0.952592 1.02365C0.863764 1.05087 0.781601 1.09634 0.71137 1.15716C0.641138 1.21798 0.584386 1.2928 0.54475 1.37682C0.505114 1.46085 0.483469 1.55223 0.481201 1.6451C0.481926 1.7356 0.501427 1.82497 0.53847 1.90754C0.575513 1.99012 0.629291 2.06411 0.696403 2.12483C0.763514 2.18555 0.842498 2.23168 0.928357 2.2603C1.01422 2.28892 1.10508 2.29941 1.1952 2.2911C1.59376 2.28104 1.99234 2.31018 2.3852 2.3781C2.6002 2.4421 2.7742 2.7951 2.8382 3.1011C2.83721 3.1033 2.83669 3.10569 2.83669 3.1081C2.83669 3.11052 2.83721 3.1129 2.8382 3.1151C2.8472 3.1701 2.9302 3.5821 2.9302 3.5871L4.7612 13.2741C4.84361 13.866 5.07368 14.4275 5.4302 14.9071C5.60363 15.1422 5.83089 15.3322 6.09293 15.4613C6.35496 15.5904 6.64414 15.6548 6.9362 15.6491H17.7682C17.9358 15.6514 18.0979 15.589 18.2207 15.4748C18.3435 15.3606 18.4174 15.2035 18.4272 15.0361C18.4313 14.9496 18.4177 14.8631 18.3873 14.782C18.3568 14.7009 18.3102 14.6269 18.2502 14.5644C18.1903 14.5019 18.1182 14.4522 18.0384 14.4185C17.9586 14.3847 17.8728 14.3676 17.7862 14.3681H6.9272C6.78869 14.3766 6.65232 14.3307 6.5472 14.2401C6.24755 13.9109 6.06295 13.4933 6.0212 13.0501L5.8212 11.9651C5.8205 11.9592 5.82193 11.9532 5.82522 11.9483C5.82852 11.9433 5.83348 11.9397 5.8392 11.9381L18.5522 9.7861C18.6106 9.77669 18.6642 9.74825 18.7047 9.7052C18.7452 9.66216 18.7703 9.60692 18.7762 9.5481L19.5082 4.2481C19.519 4.20864 19.5204 4.16719 19.5122 4.1271Z" fill="white"/>
</svg>
