<svg width="11" height="11" viewBox="0 0 11 11" fill="none" xmlns="http://www.w3.org/2000/svg">
<path d="M10.361 3.46211H6.82501L5.75001 0.255111C5.72269 0.180122 5.67297 0.115351 5.60758 0.0695834C5.5422 0.0238161 5.46432 -0.000732422 5.38451 -0.000732422C5.3047 -0.000732422 5.22682 0.0238161 5.16144 0.0695834C5.09605 0.115351 5.04633 0.180122 5.01901 0.255111L3.94501 3.46211H0.38501C0.282983 3.46237 0.18521 3.50302 0.113066 3.57517C0.0409213 3.64731 0.000274165 3.74508 1.01864e-05 3.84711C-0.000175327 3.86898 0.00217365 3.89079 0.00701016 3.91211C0.0120926 3.96653 0.0291663 4.01914 0.0570039 4.06617C0.0848415 4.1132 0.122752 4.15348 0.16801 4.18411L3.07501 6.23111L1.95901 9.47411C1.93262 9.55099 1.93117 9.63424 1.95488 9.71199C1.97858 9.78974 2.02622 9.85803 2.09101 9.90711C2.15093 9.96101 2.22673 9.994 2.30701 10.0011C2.39349 9.99476 2.47654 9.96465 2.54701 9.91411L5.38401 7.89211L8.22101 9.91411C8.29093 9.96567 8.37429 9.99589 8.46101 10.0011C8.54111 9.99563 8.61679 9.96239 8.67501 9.90711C8.74042 9.85853 8.78853 9.79027 8.81229 9.71234C8.83604 9.63441 8.8342 9.55091 8.80701 9.47411L7.69201 6.23111L10.574 4.16411L10.644 4.10411C10.7028 4.0524 10.7435 3.98329 10.7603 3.90683C10.7771 3.83037 10.7691 3.75055 10.7375 3.67895C10.7058 3.60736 10.6521 3.54774 10.5842 3.50874C10.5164 3.46974 10.4378 3.45341 10.36 3.46211H10.361Z" fill="#9C9434"/>
</svg>
